<?xml version="1.0" encoding="UTF-8"?>
<svg id="Layer_2" data-name="Layer 2" xmlns="http://www.w3.org/2000/svg" viewBox="0 0 812.7 338.45">
  <defs>
    <style>
      .cls-1 {
        fill: #f17d41;
      }
    </style>
  </defs>
  <g id="Layer_1-2" data-name="Layer 1">
    <g>
      <g>
        <g>
          <path class="cls-1" d="m157.1,0v35.2c-68.44,6.35-122.02,63.92-122.02,134.03,0,20.87,4.75,40.64,13.24,58.27l-30.26,17.98C6.51,222.55,0,196.65,0,169.22,0,79.74,69.26,6.44,157.1,0Z"/>
          <path class="cls-1" d="m157.1,303.25v35.2c-52.75-3.86-98.8-31.84-127.18-72.96l30.25-17.98c22.12,30.89,56.99,52.04,96.92,55.74Z"/>
          <path class="cls-1" d="m183.03,35.27V.05c44.42,3.45,84.03,24.01,112.28,55.09l-28.03,21.37c-21.64-22.79-51.19-37.99-84.24-41.24Z"/>
          <path class="cls-1" d="m303.81,157.81c-1.94-23.21-9.79-44.75-22.03-63.11l27.95-21.3c16.43,23.96,26.87,52.34,29.16,83l-35.08,1.41Z"/>
          <path class="cls-1" d="m339.06,179.67c-5.12,84.42-71.99,152.19-156.02,158.72v-35.22c64.18-6.31,115.11-57.69,120.74-122.07l35.28-1.43Z"/>
        </g>
        <path class="cls-1" d="m211.25,154.39v29.32c0,.96-.78,1.74-1.74,1.74h-22.67v16.05c0,6.29-5.11,11.4-11.4,11.4h-9.99c-6.29,0-11.4-5.11-11.4-11.4v-16.05h-23.43c-.96,0-1.74-.78-1.74-1.74v-29.32c0-.96.78-1.74,1.74-1.74h23.43v-15.29c0-6.29,5.11-11.4,11.4-11.4h9.99c6.29,0,11.4,5.11,11.4,11.4v15.29h22.67c.96,0,1.74.78,1.74,1.74Z"/>
        <path class="cls-1" d="m175.19,85.36c-3.36-1.1-6.98-1.1-10.34-.02-22.68,7.32-45.36,14.65-68.04,21.97v90.75c5.87,9.11,15.78,22.16,31.27,34.32,13.66,10.72,26.96,17.07,36.9,20.84,2.26.85,4.73.92,7.02.15,9.78-3.3,22.74-8.92,36.16-18.7,17.52-12.76,28.29-27.12,34.32-36.61v-90.75c-22.43-7.32-44.86-14.64-67.28-21.96Zm51.72,106.55c-4.74,7.46-13.22,18.75-26.99,28.78-10.55,7.69-20.74,12.11-28.43,14.71-1.8.6-3.74.55-5.52-.12-7.82-2.97-18.27-7.95-29.02-16.38-12.17-9.56-19.97-19.83-24.59-26.99v-71.37c17.84-5.76,35.67-11.52,53.51-17.27,2.65-.85,5.49-.85,8.13,0,17.64,5.76,35.27,11.52,52.91,17.27v71.37Z"/>
      </g>
      <g>
        <path class="cls-1" d="m389.86,141.85l22.79-4.1c1.91,6.45,6.84,9.67,14.77,9.67,6.17,0,9.26-1.64,9.26-4.92,0-1.72-.71-3.06-2.14-4.01-1.43-.96-3.97-1.81-7.65-2.55-14.03-2.69-23.03-6.2-27.01-10.54-3.98-4.34-5.97-9.44-5.97-15.3,0-7.54,2.86-13.81,8.58-18.81,5.72-5,13.95-7.5,24.7-7.5,16.29,0,27.05,6.54,32.29,19.63l-20.33,6.15c-2.11-5.35-6.39-8.03-12.83-8.03-5.35,0-8.03,1.66-8.03,4.98,0,1.48.61,2.64,1.82,3.46s3.56,1.6,7.03,2.34c9.57,2.02,16.37,3.82,20.39,5.37,4.02,1.56,7.38,4.22,10.08,7.99s4.04,8.22,4.04,13.34c0,8.09-3.28,14.65-9.84,19.67-6.56,5.02-15.18,7.53-25.84,7.53-19.49,0-31.52-8.12-36.09-24.38Z"/>
        <path class="cls-1" d="m515.02,134.47l22.44,1.35c-1.05,9.81-4.68,17.32-10.87,22.56-6.19,5.23-13.8,7.85-22.82,7.85-10.86,0-19.63-3.59-26.31-10.78-6.68-7.19-10.02-17.11-10.02-29.77s3.16-22.66,9.49-30.35c6.33-7.69,15.16-11.54,26.48-11.54,10.59,0,18.72,2.93,24.4,8.79s8.9,13.63,9.64,23.32l-22.91,1.23c0-5.35-1.03-9.22-3.08-11.6-2.05-2.38-4.46-3.57-7.24-3.57-7.73,0-11.6,7.77-11.6,23.32,0,8.71,1.01,14.63,3.02,17.75,2.01,3.13,4.83,4.69,8.47,4.69,6.48,0,10.12-4.41,10.9-13.24Z"/>
        <path class="cls-1" d="m580.99,166.22c-11.25,0-20.42-3.73-27.51-11.19-7.09-7.46-10.63-17.44-10.63-29.94s3.39-21.83,10.17-29.62,16.18-11.69,28.21-11.69c11.13,0,20.21,3.67,27.22,11.02,7.01,7.34,10.52,17.15,10.52,29.41s-3.54,22.87-10.61,30.53c-7.07,7.66-16.19,11.48-27.36,11.48Zm-.12-18.16c4.14,0,7.12-1.81,8.94-5.42,1.82-3.61,2.72-10.22,2.72-19.83,0-13.91-3.73-20.86-11.19-20.86-8.05,0-12.07,7.93-12.07,23.79,0,14.88,3.87,22.32,11.6,22.32Z"/>
        <path class="cls-1" d="m654.24,135.93v29.06h-24.9v-79.98h34.16c8.52,0,14.99.98,19.42,2.93,4.43,1.95,7.95,4.94,10.55,8.96,2.6,4.02,3.9,8.54,3.9,13.54,0,7.62-2.66,13.77-7.97,18.46-5.31,4.69-12.4,7.03-21.27,7.03h-13.89Zm-.35-17.17h8.2c7.23,0,10.84-2.66,10.84-7.97,0-5-3.34-7.5-10.02-7.5h-9.02v15.47Z"/>
        <path class="cls-1" d="m774.35,85.01v79.98h-24.55v-31.11h-18.75v31.11h-24.55v-79.98h24.55v29.41h18.75v-29.41h24.55Z"/>
        <path class="cls-1" d="m378.84,233.96v17.44h-14.94v-47.99h20.5c5.11,0,8.99.59,11.65,1.76,2.66,1.17,4.77,2.96,6.33,5.38,1.56,2.41,2.34,5.12,2.34,8.12,0,4.57-1.59,8.26-4.78,11.07-3.19,2.81-7.44,4.22-12.76,4.22h-8.33Zm-.21-10.3h4.92c4.34,0,6.5-1.59,6.5-4.78,0-3-2-4.5-6.01-4.5h-5.41v9.28Z"/>
        <path class="cls-1" d="m444.48,215.64v35.75h-12.97v-5.87c-1.9,4.41-5.6,6.61-11.11,6.61-3.4,0-6.03-.94-7.89-2.83-1.86-1.89-2.79-4.59-2.79-8.1v-25.56h14.03v22.5c0,1.41.19,2.4.58,2.97s1.14.86,2.27.86c1.2,0,2.17-.43,2.92-1.28s1.12-2.06,1.12-3.6v-21.45h13.85Z"/>
        <path class="cls-1" d="m459.84,251.39h-7.91v-47.99h13.82v16.49c1.92-3.33,4.98-4.99,9.18-4.99,2.95,0,5.46.77,7.52,2.32s3.6,3.76,4.61,6.63,1.51,5.89,1.51,9.05c0,5.77-1.29,10.41-3.87,13.94s-6.42,5.29-11.53,5.29-8.87-1.89-11.5-5.66c-.75,1.41-1.36,3.05-1.83,4.92Zm5.91-13.32c0,3.52,1.36,5.27,4.08,5.27,1.48,0,2.61-.64,3.39-1.92s1.18-3.91,1.18-7.89c0-4.34-.45-7.06-1.34-8.17s-1.99-1.67-3.3-1.67c-1.03,0-1.96.4-2.78,1.2s-1.23,1.96-1.23,3.48v9.7Z"/>
        <path class="cls-1" d="m507.97,203.41v47.99h-13.82v-47.99h13.82Z"/>
        <path class="cls-1" d="m529.38,201.89v11.11h-14.03v-11.11h14.03Zm0,13.75v35.75h-14.03v-35.75h14.03Z"/>
        <path class="cls-1" d="m558.31,236.98l11.95,1.02c-.56,4.17-2.31,7.57-5.26,10.2s-6.85,3.94-11.72,3.94c-5.46,0-9.9-1.72-13.31-5.15s-5.12-7.83-5.12-13.2,1.69-10,5.08-13.55,7.79-5.33,13.2-5.33c4.8,0,8.72,1.34,11.74,4.03s4.76,6.08,5.2,10.18l-12.27,1.02c-.52-3.77-1.95-5.66-4.29-5.66-1.5,0-2.6.69-3.29,2.06s-1.04,3.76-1.04,7.15c0,2.93.35,5.1,1.04,6.5s1.89,2.11,3.6,2.11c2.51,0,4-1.77,4.46-5.31Z"/>
        <path class="cls-1" d="m633.62,203.41v47.99h-14.73v-18.67h-11.25v18.67h-14.73v-47.99h14.73v17.65h11.25v-17.65h14.73Z"/>
        <path class="cls-1" d="m665.08,238.56l13.08.88c-.77,3.52-2.75,6.51-5.92,8.98s-7.47,3.71-12.88,3.71c-6.02,0-10.83-1.74-14.41-5.22s-5.38-7.8-5.38-12.96,1.77-9.86,5.31-13.54,8.26-5.52,14.17-5.52,10.34,1.73,13.87,5.2,5.29,8.19,5.29,14.17c0,.49-.01,1.17-.04,2.04h-23.94c.05,2.25.45,3.92,1.2,5.01s2.18,1.63,4.29,1.63c3.05,0,4.84-1.46,5.38-4.39Zm-.95-9.28c-.02-2.41-.51-4.04-1.45-4.87s-2.12-1.25-3.52-1.25c-3.32,0-4.97,2.04-4.97,6.12h9.95Z"/>
        <path class="cls-1" d="m719.71,251.39h-13.36c-.33-1.52-.49-3.19-.49-4.99-2.53,3.82-6.36,5.73-11.5,5.73-4.22,0-7.38-1.08-9.47-3.23s-3.15-4.63-3.15-7.42c0-3.77,1.72-6.83,5.15-9.16s9.52-3.73,18.26-4.2v-.81c0-1.57-.36-2.61-1.07-3.13s-1.76-.77-3.15-.77c-3.23,0-5.04,1.3-5.41,3.9l-12.8-1.2c1.83-7.48,8.05-11.21,18.67-11.21,2.88,0,5.53.29,7.95.86s4.32,1.47,5.73,2.69,2.35,2.51,2.83,3.87.72,3.97.72,7.84v14.27c0,2.72.36,5.04,1.09,6.96Zm-14.55-16.73c-5.98.63-8.96,2.54-8.96,5.73,0,2.16,1.18,3.23,3.55,3.23,1.5,0,2.78-.45,3.83-1.34s1.58-2.86,1.58-5.91v-1.72Z"/>
        <path class="cls-1" d="m739.72,203.41v47.99h-13.82v-47.99h13.82Z"/>
        <path class="cls-1" d="m769.18,215.64v9.11h-7.14v13.18c0,1.8.34,2.88,1.02,3.22s1.38.51,2.11.51c1.12,0,2.46-.2,4.01-.6v9.98c-2.77.54-5.48.81-8.16.81-4.31,0-7.48-.93-9.51-2.78s-3.04-4.8-3.04-8.86l.04-4.18v-11.29h-5.34v-9.11h5.34l.21-11.64,13.32-.21v11.85h7.14Z"/>
        <path class="cls-1" d="m808.98,251.39h-14.03v-21.52c0-1.97-.22-3.32-.65-4.06s-1.26-1.11-2.5-1.11c-.96,0-1.79.29-2.5.86-.71.57-1.13,1.17-1.24,1.78s-.17,1.89-.17,3.83v20.21h-14.03v-47.99h14.03v16.45c2.53-3.3,5.84-4.96,9.91-4.96,2.06,0,3.87.36,5.43,1.07s2.76,1.63,3.6,2.76,1.41,2.21,1.71,3.27.44,3.09.44,6.12v23.27Z"/>
      </g>
    </g>
  </g>
</svg>