<?xml version="1.0" encoding="UTF-8"?>
<svg id="Layer_2" data-name="Layer 2" xmlns="http://www.w3.org/2000/svg" viewBox="0 0 902.51 900.89">
  <defs>
    <style>
      .cls-1 {
        fill: #f17d41;
      }
    </style>
  </defs>
  <g id="Layer_1-2" data-name="Layer 1">
    <g>
      <g>
        <path class="cls-1" d="m418.19,0v93.69C236.01,110.58,93.38,263.84,93.38,450.44c0,55.56,12.65,108.18,35.24,155.11l-80.55,47.85C17.32,592.38,0,523.44,0,450.44,0,212.26,184.37,17.13,418.19,0Z"/>
        <path class="cls-1" d="m418.19,807.2v93.69c-140.42-10.27-262.99-84.75-338.53-194.21l80.53-47.85c58.89,82.24,151.7,138.53,258,148.38Z"/>
        <path class="cls-1" d="m487.21,93.89V.14c118.23,9.2,223.67,63.91,298.86,146.65l-74.62,56.88c-57.61-60.66-136.26-101.14-224.24-109.78Z"/>
        <path class="cls-1" d="m808.7,420.05c-5.18-61.79-26.07-119.12-58.63-167.99l74.4-56.7c43.75,63.78,71.52,139.32,77.61,220.93l-93.38,3.76Z"/>
        <path class="cls-1" d="m902.51,478.26c-13.64,224.72-191.62,405.09-415.3,422.49v-93.75c170.83-16.81,306.41-153.57,321.4-324.93l93.91-3.82Z"/>
      </g>
      <path class="cls-1" d="m562.32,410.97v78.03c0,2.56-2.07,4.63-4.63,4.63h-60.33v42.73c0,16.75-13.6,30.35-30.35,30.35h-26.59c-16.75,0-30.35-13.6-30.35-30.35v-42.73h-62.36c-2.56,0-4.63-2.07-4.63-4.63v-78.03c0-2.56,2.07-4.63,4.63-4.63h62.36v-40.7c0-16.75,13.6-30.35,30.35-30.35h26.59c16.75,0,30.35,13.6,30.35,30.35v40.7h60.33c2.56,0,4.63,2.07,4.63,4.63Z"/>
      <path class="cls-1" d="m466.32,227.21c-8.95-2.92-18.57-2.92-27.53-.04-60.37,19.49-120.75,39-181.12,58.49v241.57c15.63,24.24,42,58.99,83.23,91.35,36.36,28.54,71.76,45.43,98.23,55.46,6.01,2.27,12.59,2.46,18.68.41,26.03-8.79,60.54-23.75,96.24-49.78,46.63-33.96,75.31-72.19,91.35-97.44v-241.57c-59.7-19.49-119.41-38.96-179.09-58.44Zm137.68,283.62c-12.61,19.85-35.18,49.92-71.84,76.61-28.08,20.46-55.22,32.24-75.68,39.16-4.79,1.6-9.97,1.46-14.7-.32-20.81-7.9-48.64-21.15-77.24-43.61-32.4-25.46-53.15-52.78-65.45-71.84v-189.97c47.48-15.33,94.94-30.65,142.43-45.98,7.04-2.27,14.62-2.27,21.64.02,46.95,15.33,93.89,30.65,140.84,45.96v189.97Z"/>
    </g>
  </g>
</svg>